HIERARCHY
ROOT Hips
{
	OFFSET 0.000000 0.000000 0.000000
	CHANNELS 6 Xposition Yposition Zposition Zrotation Yrotation Xrotation 
	JOINT LHipJoint
	{
		OFFSET 0.000000 0.000000 0.000000
		CHANNELS 3 Zrotation Yrotation Xrotation
		JOINT LeftUpLeg
		{
			OFFSET 1.363060 -1.794630 0.839290
			CHANNELS 3 Zrotation Yrotation Xrotation
			JOINT LeftLeg
			{
				OFFSET 2.448110 -6.726130 0.000000
				CHANNELS 3 Zrotation Yrotation Xrotation
				JOINT LeftFoot
				{
					OFFSET 2.562200 -7.039590 0.000000
					CHANNELS 3 Zrotation Yrotation Xrotation
					JOINT LeftToeBase
					{
						OFFSET 0.157640 -0.433110 2.322550
						CHANNELS 3 Zrotation Yrotation Xrotation
						End Site
						{
							OFFSET 0.000000 0.000000 0.000000
						}
					}
				}
			}
		}
	}
	JOINT RHipJoint
	{
		OFFSET 0.000000 0.000000 0.000000
		CHANNELS 3 Zrotation Yrotation Xrotation
		JOINT RightUpLeg
		{
			OFFSET -1.305520 -1.794630 0.839290
			CHANNELS 3 Zrotation Yrotation Xrotation
			JOINT RightLeg
			{
				OFFSET -2.542530 -6.985550 0.000000
				CHANNELS 3 Zrotation Yrotation Xrotation
				JOINT RightFoot
				{
					OFFSET -2.568260 -7.056230 0.000000
					CHANNELS 3 Zrotation Yrotation Xrotation
					JOINT RightToeBase
					{
						OFFSET -0.164730 -0.452590 2.363150
						CHANNELS 3 Zrotation Yrotation Xrotation
						End Site
						{
							OFFSET 0.000000 0.000000 0.000000
						}
					}
				}
			}
		}
	}
}
MOTION
Frames: 28
Frame Time: 0.008333
-2.400902 17.483122 -2.328137 -117.381185 84.428778 -99.808611 -11.812257 2.410703 0.635851 -10.079580 -2.131647 -4.893407 -0.631089 0.934097 21.476622 1.010612 6.663989 2.853351 1.189300 0.000000 -48.300300 7.143259 -0.834747 2.045489 10.341086 3.581790 -32.871895 3.657191 0.250756 10.259396 -0.208752 -0.632288 -0.641920 -0.609200 -0.000000 -54.575900
-2.165771 17.504604 -2.344213 -119.414342 84.341563 -101.850026 -11.823201 2.462025 0.631579 -10.105731 -2.422422 -4.534954 -0.523476 1.021542 22.321037 1.113755 7.408711 3.476530 1.386800 0.000001 -45.715700 7.113244 -0.788218 2.180675 10.206162 3.777824 -32.307102 3.791623 0.523758 7.868393 0.029766 0.381712 0.319588 -0.478200 -0.000000 -55.480300
-1.932084 17.515084 -2.359853 -121.579652 84.255752 -104.018715 -11.831894 2.501022 0.629978 -10.175286 -2.699528 -4.440957 -0.414818 1.119205 23.681858 1.244937 8.316709 3.696612 1.576900 0.000000 -42.869999 7.102929 -0.749063 2.293029 10.048797 3.941703 -31.926845 3.892363 0.709377 6.179560 0.252478 1.405819 1.165022 -0.311700 -0.000001 -56.173200
-1.700463 17.514204 -2.375480 -123.670367 84.149894 -106.108290 -11.849193 2.523572 0.616799 -10.241525 -2.911739 -4.610171 -0.304433 1.228309 25.544333 1.397842 9.339570 3.541833 1.740200 -0.000000 -39.687400 7.099965 -0.727280 2.397225 9.878432 4.159931 -31.689397 3.958407 0.814138 5.128949 0.441939 2.326308 1.911441 -0.138800 0.000000 -56.720800
-1.471385 17.501451 -2.391225 -125.629512 84.017499 -108.067999 -11.881026 2.531051 0.590544 -10.283643 -3.054496 -5.015500 -0.190014 1.350128 27.850777 1.569146 10.456101 3.112228 1.870900 0.000000 -36.656200 7.098837 -0.727072 2.489214 9.714769 4.429655 -31.588910 3.993971 0.838439 4.724107 0.594624 3.115625 2.518761 0.026900 -0.000000 -57.029200
-1.245307 17.476452 -2.407342 -127.300829 83.846899 -109.741963 -11.934465 2.521532 0.543218 -10.267470 -3.108627 -5.633427 -0.072159 1.485440 30.546270 1.751291 11.615213 2.456376 1.952499 0.000000 -33.683200 7.090561 -0.751574 2.579563 9.562865 4.814747 -31.588575 3.995680 0.793056 4.888281 0.699499 3.679413 2.993630 0.156900 0.000000 -57.139900
-1.022612 17.438947 -2.423949 -128.653175 83.638227 -111.106569 -12.010915 2.497540 0.475914 -10.183718 -3.084344 -6.422679 0.048772 1.634742 33.555231 1.937877 12.781974 1.646386 1.979800 0.000000 -30.929300 7.073045 -0.798693 2.660952 9.441788 5.294009 -31.685179 3.965666 0.681642 5.614773 0.758108 4.017158 3.294391 0.242100 -0.000000 -57.021200
-0.803584 17.388861 -2.441235 -129.655131 83.391840 -112.137889 -12.110866 2.461250 0.389380 -10.025080 -2.992255 -7.342000 0.172626 1.798273 36.801929 2.121481 13.917146 0.744173 1.951000 -0.000000 -28.557600 7.044281 -0.864078 2.727655 9.369525 5.851501 -31.867367 3.904889 0.511409 6.871850 0.771598 4.130167 3.387606 0.275900 -0.000001 -56.685600
-0.588320 17.326340 -2.459412 -130.342227 83.110155 -112.875792 -12.232638 2.416228 0.287941 -9.792348 -2.847288 -8.360528 0.298460 1.975843 40.224148 2.294029 14.976954 -0.223441 1.862299 0.000000 -26.538800 7.005517 -0.941351 2.771615 9.365368 6.445039 -32.139061 3.816141 0.288835 8.640743 0.744915 4.054759 3.230695 0.262701 -0.000000 -56.159601
-0.376810 17.251858 -2.478670 -130.779996 82.797059 -113.387108 -12.373588 2.366169 0.177575 -9.492658 -2.667183 -9.456547 0.426156 2.166862 43.767502 2.448560 15.923431 -1.242374 1.712200 -0.000000 -24.853200 6.959752 -1.023062 2.786079 9.442659 7.028393 -32.504507 3.702611 0.021957 10.892047 0.683860 3.837666 2.786276 0.213100 0.000000 -55.489700
-0.168870 17.166164 -2.499183 -131.061533 82.459119 -113.762201 -12.529675 2.315004 0.065938 -9.141492 -2.471514 -10.618531 0.556266 2.370193 47.387721 2.580131 16.728851 -2.313058 1.500800 0.000000 -23.446800 6.912887 -1.101368 2.765474 9.605424 7.548423 -32.973365 3.568182 -0.280994 13.594517 0.595700 3.537424 2.020999 0.143800 -0.000000 -54.717200
0.035757 17.070321 -2.521139 -131.269092 82.102065 -114.075264 -12.697391 2.265044 -0.040239 -8.754749 -2.276200 -11.846228 0.690236 2.584018 51.048085 2.686212 17.377643 -3.443751 1.229900 0.000000 -22.246500 6.870290 -1.169910 2.711233 9.844523 7.975406 -33.545627 3.416342 -0.608428 16.684051 0.485447 3.191969 0.924812 0.069200 0.000000 -53.902100
0.237568 16.965853 -2.544772 -131.494846 81.727613 -114.402583 -12.874909 2.217083 -0.132079 -8.343555 -2.098695 -13.153594 0.830073 2.805500 54.717587 2.766677 17.867026 -4.644989 0.903700 0.000000 -21.164600 6.835903 -1.225291 2.629198 10.147451 8.287642 -34.222961 3.252370 -0.947960 20.083380 0.358070 2.833263 -0.496080 0.002800 0.000000 -53.072200
0.436862 16.854581 -2.570201 -131.771260 81.339626 -114.764410 -13.059556 2.169503 -0.206190 -7.919920 -1.945322 -14.549117 0.977830 3.031511 58.363033 2.824435 18.212349 -5.919774 0.531000 0.000000 -20.135501 6.811846 -1.266310 2.530349 10.492858 8.495283 -34.984667 3.081064 -1.285532 23.681805 0.215415 2.466643 -2.207268 -0.047000 -0.000001 -52.290800
0.634098 16.738740 -2.597689 -132.126180 80.935821 -115.174364 -13.250664 2.118935 -0.258314 -7.486601 -1.821440 -16.045819 1.135120 3.258348 61.950365 2.864243 18.439960 -7.263575 0.122500 0.000000 -19.098299 6.796796 -1.295443 2.426187 10.868049 8.610949 -35.807856 2.909572 -1.608872 27.364551 0.059770 2.096361 -4.159457 -0.073201 -0.000000 -51.591200
0.829630 16.620806 -2.627439 -132.563340 80.513982 -115.627499 -13.447203 2.060846 -0.286768 -7.043969 -1.727142 -17.648594 1.302491 3.482445 65.440989 2.892564 18.587130 -8.661579 -0.309101 0.000000 -18.010300 6.787692 -1.317108 2.326165 11.264980 8.651697 -36.657954 2.744994 -1.908455 31.016169 -0.106810 1.723001 -6.288980 -0.070600 0.000000 -51.005800
1.023708 16.503427 -2.659609 -133.074480 80.073035 -116.113522 -13.647212 1.990582 -0.291810 -6.592005 -1.658843 -19.352386 1.479175 3.700580 68.792554 2.916697 18.696815 -10.089407 -0.751900 -0.000000 -16.852500 6.780899 -1.336463 2.235825 11.680112 8.631141 -37.493377 2.593666 -2.178071 34.530791 -0.281839 1.348854 -8.524872 -0.035700 0.000000 -50.555100
1.216539 16.389277 -2.694290 -133.646823 79.614076 -116.624454 -13.847472 1.903998 -0.275528 -6.132121 -1.610408 -21.142467 1.662931 3.910010 71.960778 2.943977 18.812516 -11.517598 -1.196300 0.000000 -15.620400 6.773182 -1.358348 2.156282 12.111609 8.557665 -38.266482 2.460248 -2.414337 37.817200 -0.462438 0.977266 -10.793276 0.032600 -0.000000 -50.250200
1.408157 16.280931 -2.731432 -134.274676 79.143257 -117.168062 -14.041861 1.798612 -0.242772 -5.674300 -1.574877 -22.989496 1.849893 4.108441 74.900397 2.981141 18.974308 -12.916284 -1.637000 0.000000 -14.314200 6.764188 -1.385499 2.083011 12.552438 8.430049 -38.924756 2.347363 -2.616047 40.801928 -0.644735 0.614804 -13.022199 0.132099 0.000000 -50.098100
1.598616 16.180716 -2.770910 -134.949270 78.666637 -117.749609 -14.224647 1.673112 -0.198168 -5.226125 -1.544601 -24.864969 2.035203 4.293731 77.572293 3.032941 19.209986 -14.258015 -2.071801 -0.000000 -12.964200 6.753078 -1.420175 2.011582 12.996096 8.249624 -39.420327 2.256271 -2.782571 43.426114 -0.825359 0.262775 -15.146107 0.258100 -0.000000 -50.088000
1.787948 16.090658 -2.812436 -135.682753 78.197369 -118.401220 -14.386726 1.529058 -0.148832 -4.808577 -1.513809 -26.727815 2.212384 4.463759 79.940025 3.102276 19.535972 -15.524141 -2.502100 0.000000 -11.584699 6.743734 -1.461457 1.933266 13.423858 8.007573 -39.705008 2.186654 -2.914213 45.649637 -0.999544 -0.072831 -17.109514 0.403200 -0.000001 -50.216099
1.976217 16.012430 -2.855635 -136.492219 77.748503 -119.157212 -14.519568 1.369693 -0.101058 -4.443183 -1.478768 -28.541596 2.374264 4.616242 81.976380 3.189246 19.951414 -16.705005 -2.930500 0.000000 -10.201200 6.740400 -1.507509 1.841074 13.813846 7.697889 -39.741619 2.137600 -3.011285 47.446400 -1.162945 -0.389074 -18.870175 0.558900 -0.000000 -50.468200
2.163695 15.947181 -2.900222 -137.394844 77.329922 -120.047117 -14.616359 1.199568 -0.059627 -4.148282 -1.437495 -30.277110 2.513488 4.748972 83.664323 3.290838 20.436474 -17.800874 -3.358700 0.000000 -8.839200 6.746774 -1.556289 1.730825 14.144297 7.319059 -39.506040 2.107885 -3.074251 48.803971 -1.312038 -0.685549 -20.400292 0.716800 0.000000 -50.824000
2.350694 15.895714 -2.946074 -138.418126 76.950290 -121.106876 -14.670530 1.024497 -0.028140 -3.946774 -1.392538 -31.910100 2.622820 4.859586 84.994654 3.401942 20.958612 -18.819942 -3.787100 0.000000 -7.516700 6.768088 -1.604498 1.599817 14.387378 6.869039 -38.987902 2.095922 -3.104220 49.724623 -1.443329 -0.958410 -21.687190 0.868600 0.000001 -51.258200
2.537700 15.858393 -2.992873 -139.598063 76.616799 -122.373357 -14.677562 0.850706 -0.007670 -3.856143 -1.348223 -33.428555 2.695872 4.946188 85.966879 3.515578 21.473779 -19.775111 -4.213000 0.000000 -6.250500 6.808491 -1.648986 1.449016 14.519684 6.351539 -38.192750 2.099699 -3.102675 50.222635 -1.554525 -1.204237 -22.731759 1.007500 0.000000 -51.740000
2.725379 15.835206 -3.040842 -140.962853 76.328234 -123.867633 -14.635309 0.683647 0.003756 -3.890561 -1.312701 -34.832037 2.727699 5.006978 86.586778 3.624242 21.933949 -20.682606 -4.631300 -0.000000 -5.033500 6.870903 -1.687270 1.282561 14.520705 5.773717 -37.141965 2.117241 -3.071733 50.322398 -1.644109 -1.417650 -23.545224 1.127900 -0.000000 -52.239599
2.916170 15.823582 -3.092543 -142.242356 76.013619 -125.235632 -14.577428 0.508178 0.036550 -3.904962 -1.262742 -36.277693 2.723859 5.046714 86.917160 3.713266 22.241101 -21.567235 -5.023100 -0.000001 -3.882600 6.910453 -1.740339 1.156331 14.515173 5.284599 -35.958263 2.147665 -3.009970 50.047603 -1.729694 -1.670215 -24.137514 1.245200 0.000001 -52.676600
3.108622 15.827214 -3.141286 -144.169880 75.841353 -127.299404 -14.415323 0.372043 0.056221 -4.286590 -1.288584 -37.533097 2.664690 5.044733 86.867605 3.796637 22.480126 -22.396402 -5.395400 0.000000 -2.785500 7.045358 -1.751761 0.999610 14.147914 4.627400 -34.589712 2.178640 -2.931049 49.508083 -1.771793 -1.783789 -24.562180 1.313700 -0.000000 -53.115400
